# xmcd
#
# Track frame offsets:
# 150
# 21938
# 54128
# 83547
# 107552
# 134731
# 154810
# 182653
#
# Disc length: 2943 seconds
#
# Revision: 1
# Processed by: cddbd v1.4PL0 Copyright (c) Steve Scherf et al.
# Submitted via: Easy CD Ripper 1.45
#
DISCID=5c0b7d08
DTITLE=Vicente Amigo - Cuidad de las Ideas
DYEAR=2002
DGENRE=Other
TTITLE0=Ojos de la Alhambra
TTITLE1=Vicente Amigo - La Tarde Es Caramelo (Alegrías)
TTITLE2=Vicente Amigo - Ojos de la Alhambra
TTITLE3=Vicente Amigo - Compare Manuel (Tangos)
TTITLE4=Vicente Amigo - Bolero de Vicente
TTITLE5=Vicente Amigo - Tatá
TTITLE6=Vicente Amigo - Córdoba (Soleá)
TTITLE7=Vicente Amigo - Ciudad de las Ideas
EXTD=
EXTT0=
EXTT1=
EXTT2=
EXTT3=
EXTT4=
EXTT5=
EXTT6=
EXTT7=
PLAYORDER=
